# xmcd
#
# Track frame offsets:
#	150
#	15696
#	31377
#	51063
#	63109
#	78792
#	96559
#	113458
#	130098
#	147287
#	163610
#	182659
#	195835
#
# Disc length: 2850 seconds
#
# Revision: 2
# Processed by: cddbd v1.4b41PL1 Copyright (c) Steve Scherf et al.
# Submitted via: EZCDDA 4.3.2
#
DISCID=9c0b200d
DTITLE=BLACKLAND - OLD TIMES and USED TO BE'S
DYEAR=1900
DGENRE=
TTITLE0=old times and used to be's
TTITLE1=let it rain
TTITLE2=diamonds last foreever
TTITLE3=the alter
TTITLE4=long time in the making
TTITLE5=scared of love
TTITLE6=staying in touch
TTITLE7=stranger's eyes
TTITLE8=let my heart catch up
TTITLE9=every other weekend 
TTITLE10=it's not easy
TTITLE11=raymond
TTITLE12=tomorrow's out sight
EXTD=
EXTT0=
EXTT1=
EXTT2=
EXTT3=
EXTT4=
EXTT5=
EXTT6=
EXTT7=
EXTT8=
EXTT9=
EXTT10=
EXTT11=
EXTT12=
PLAYORDER=
